# xmcd
#
# Track frame offsets:
#	182
#	14180
#	26052
#	40002
#	56057
#	68712
#	81342
#	94790
#	108630
#	122912
#	137000
#	151115
#	164652
#	177710
#	191312
#	203967
#	220760
#	234812
#
# Disc length: 3313 seconds
#
# Revision: 1
# Processed by: cddbd v1.4PL0 Copyright (c) Steve Scherf et al.
# Submitted via: audiograbber 1.81.02
#
DISCID=010cef12
DTITLE=Leroy Carr - Jazz and Blues Collection n°66
DYEAR=1996
DGENRE=Blues
TTITLE0=Mean Mistreater Mama
TTITLE1=Hustler's Blues
TTITLE2=Midnight Hour Blues
TTITLE3=Blues Before Sunrise
TTITLE4=Cruel Woman Blues
TTITLE5=Broken Hearted Man
TTITLE6=Eleven Twenty-Nine Blues
TTITLE7=Black Gal
TTITLE8=I Ain't Got No Money Now
TTITLE9=Big Four Blues
TTITLE10=Hard Hearted Papa
TTITLE11=You Left Me Crying
TTITLE12=Barrelhouse Woman Blues
TTITLE13=Don't Start No Stuff
TTITLE14=Evil Hearted Woman
TTITLE15=Shady Lane Blues
TTITLE16=Take a Walk Around the Corner
TTITLE17=The Depression Blues
EXTD=
EXTT0=
EXTT1=
EXTT2=
EXTT3=
EXTT4=
EXTT5=
EXTT6=
EXTT7=
EXTT8=
EXTT9=
EXTT10=
EXTT11=
EXTT12=
EXTT13=
EXTT14=
EXTT15=
EXTT16=
EXTT17=
PLAYORDER=
